<svg width="193" height="311" viewBox="0 0 193 311" fill="none" xmlns="http://www.w3.org/2000/svg">
<path d="M155.5 221C132.967 259.177 124.209 274.953 97.5002 310.063C65.894 270.824 52.5846 250.408 36.0002 216.563C15.9097 175.563 0 131.063 0 100.063C0 69.0634 12.6804 28.9789 54.5002 9.56342C82.8372 -3.59245 105.799 -2.77664 134.5 9.56342C178.132 28.3228 196 70.5633 192.5 108.563C189 146.563 174.986 184.799 155.5 221Z" fill="#F5C443"/>
<path d="M149.469 80.3018H146.802L136.427 67.0029V59.6518C136.424 57.0929 135.42 54.6396 133.635 52.8302C131.85 51.0207 129.43 50.0029 126.906 50H65.1103C62.5867 50.0036 60.1675 51.0219 58.3835 52.8313C56.5995 54.6408 55.5965 57.0936 55.5943 59.6518V67.0029L45.2169 80.3018H42.5498C42.2154 80.3015 41.8839 80.368 41.5748 80.4974C41.2656 80.6268 40.9846 80.8166 40.7478 81.0561C40.5111 81.2956 40.3233 81.5801 40.195 81.8932C40.0667 82.2064 40.0004 82.5419 40 82.881V98.8755C40.0014 99.56 40.2708 100.216 40.7488 100.7C41.2268 101.183 41.8745 101.455 42.5498 101.455H50.3537C51.028 101.454 51.6742 101.182 52.1508 100.698C52.6274 100.215 52.8954 99.5591 52.8954 98.8755V82.881C52.8945 82.4031 52.7622 81.935 52.5135 81.5291C52.2648 81.1231 51.9092 80.7956 51.487 80.583L55.5917 75.3191V135.69C55.5941 137.347 56.0178 138.976 56.8217 140.419C57.6257 141.862 58.7827 143.07 60.1816 143.928V154.421C60.1819 154.76 60.2483 155.095 60.3766 155.409C60.5049 155.722 60.6927 156.006 60.9294 156.246C61.1662 156.485 61.4472 156.675 61.7564 156.804C62.0655 156.934 62.3969 157 62.7314 157H70.9992C71.674 157 72.3211 156.728 72.7983 156.245C73.2755 155.761 73.5435 155.105 73.5435 154.421V145.337H118.459V154.421C118.461 155.105 118.73 155.761 119.208 156.245C119.686 156.728 120.334 157 121.009 157H129.277C129.951 156.999 130.598 156.727 131.074 156.244C131.551 155.76 131.818 155.104 131.818 154.421V143.928C133.218 143.071 134.376 141.863 135.18 140.42C135.984 138.976 136.407 137.348 136.409 135.69V75.3191L140.521 80.583C140.098 80.7947 139.741 81.1218 139.49 81.5277C139.24 81.9337 139.107 82.4024 139.105 82.881V98.8755C139.106 99.56 139.375 100.216 139.853 100.7C140.331 101.183 140.979 101.455 141.654 101.455H149.458C150.133 101.454 150.779 101.182 151.256 100.698C151.732 100.215 152 99.5591 152 98.8755V82.881C152.001 82.1989 151.736 81.544 151.261 81.0604C150.786 80.5768 150.142 80.304 149.469 80.3018ZM123.276 96.4395H68.7349C68.0983 96.4395 67.4879 96.1832 67.0377 95.7269C66.5876 95.2705 66.3345 94.6516 66.3345 94.0062V74.2701C66.3345 73.6248 66.5876 73.0058 67.0377 72.5495C67.4879 72.0932 68.0983 71.837 68.7349 71.837H123.276C123.912 71.837 124.523 72.0932 124.973 72.5495C125.424 73.0058 125.676 73.6248 125.676 74.2701V94.0062C125.676 94.6516 125.424 95.2705 124.973 95.7269C124.523 96.1832 123.912 96.4395 123.276 96.4395ZM71.7168 127.398C70.2876 127.397 68.9172 126.821 67.9066 125.796C66.8961 124.772 66.3281 123.383 66.3267 121.934C66.3281 120.486 66.8961 119.097 67.9066 118.072C68.9172 117.048 70.2876 116.472 71.7168 116.47C73.1459 116.472 74.516 117.048 75.5265 118.072C76.5371 119.097 77.1054 120.486 77.1068 121.934C77.1054 123.383 76.5371 124.772 75.5265 125.796C74.516 126.821 73.1459 127.397 71.7168 127.398ZM114.901 121.934C114.902 120.485 115.47 119.096 116.481 118.072C117.492 117.047 118.862 116.471 120.291 116.47C121.721 116.472 123.091 117.048 124.102 118.072C125.113 119.097 125.682 120.485 125.684 121.934C125.682 123.383 125.113 124.772 124.102 125.797C123.091 126.821 121.721 127.397 120.291 127.398C118.862 127.397 117.492 126.821 116.482 125.796C115.471 124.772 114.903 123.383 114.901 121.934ZM101.705 57.9243H124.705C125.04 57.9239 125.371 57.9903 125.68 58.1197C125.99 58.2491 126.271 58.4391 126.507 58.6786C126.744 58.9181 126.932 59.2024 127.06 59.5155C127.189 59.8286 127.255 60.1644 127.255 60.5035C127.254 61.188 126.984 61.844 126.506 62.3275C126.028 62.8111 125.381 63.0826 124.705 63.0826H101.705C101.03 63.0819 100.384 62.8098 99.9076 62.3262C99.431 61.8426 99.163 61.1871 99.163 60.5035C99.1638 59.8204 99.4318 59.1654 99.9083 58.6824C100.385 58.1993 101.031 57.925 101.705 57.9243ZM67.3001 57.9243H90.3005C90.9748 57.925 91.6213 58.1969 92.0979 58.6806C92.5745 59.1642 92.8422 59.8199 92.8422 60.5035C92.8422 61.1871 92.5745 61.8426 92.0979 62.3262C91.6213 62.8098 90.9748 63.0819 90.3005 63.0826H67.3001C66.6253 63.0826 65.9779 62.8109 65.5007 62.3272C65.0235 61.8435 64.7555 61.1875 64.7555 60.5035C64.7558 60.1648 64.822 59.8295 64.9502 59.5167C65.0784 59.2039 65.2661 58.9196 65.5027 58.6804C65.7392 58.4411 66.0198 58.2514 66.3286 58.1222C66.6374 57.9929 66.9686 57.9266 67.3027 57.9269L67.3001 57.9243ZM106.836 135.666H85.1666C84.4918 135.666 83.8447 135.394 83.3675 134.91C82.8903 134.427 82.6223 133.771 82.6223 133.087C82.623 132.403 82.8911 131.747 83.3682 131.264C83.8452 130.78 84.492 130.508 85.1666 130.507H106.836C107.512 130.507 108.159 130.779 108.637 131.263C109.115 131.746 109.384 132.402 109.386 133.087C109.386 133.426 109.319 133.761 109.191 134.075C109.063 134.388 108.875 134.672 108.638 134.912C108.401 135.151 108.12 135.341 107.811 135.47C107.502 135.6 107.171 135.666 106.836 135.666ZM106.836 126.071H85.1666C84.492 126.07 83.8452 125.798 83.3682 125.315C82.8911 124.831 82.623 124.175 82.6223 123.492C82.6223 122.808 82.8903 122.152 83.3675 121.668C83.8447 121.184 84.4918 120.912 85.1666 120.912H106.836C107.171 120.912 107.502 120.979 107.811 121.108C108.12 121.237 108.401 121.427 108.638 121.667C108.875 121.906 109.063 122.191 109.191 122.504C109.319 122.817 109.386 123.153 109.386 123.492C109.384 124.176 109.115 124.832 108.637 125.316C108.159 125.799 107.512 126.071 106.836 126.071ZM106.836 116.47H85.1666C84.492 116.47 83.8452 116.198 83.3682 115.714C82.8911 115.231 82.623 114.575 82.6223 113.891C82.6223 113.207 82.8903 112.551 83.3675 112.067C83.8447 111.584 84.4918 111.312 85.1666 111.312H106.836C107.171 111.312 107.502 111.378 107.811 111.507C108.12 111.637 108.401 111.827 108.638 112.066C108.875 112.306 109.063 112.59 109.191 112.903C109.319 113.216 109.386 113.552 109.386 113.891C109.385 114.576 109.116 115.233 108.638 115.717C108.16 116.201 107.512 116.47 106.836 116.47Z" fill="white"/>
</svg>
