<svg width="193" height="311" viewBox="0 0 193 311" fill="none" xmlns="http://www.w3.org/2000/svg">
<path d="M155.5 221C132.967 259.177 124.209 274.953 97.5002 310.063C65.894 270.824 52.5846 250.408 36.0002 216.563C15.9097 175.563 0 131.063 0 100.063C0 69.0634 12.6804 28.9789 54.5002 9.56342C82.8372 -3.59245 105.799 -2.77664 134.5 9.56342C178.132 28.3228 196 70.5633 192.5 108.563C189 146.563 174.986 184.799 155.5 221Z" fill="#3C5184"/>
<path d="M95.9974 50C71.1334 50 51 52.7955 51 72.472V125.844C51.0013 131.058 53.0757 136.058 56.7672 139.745C60.4587 143.432 65.4651 145.504 70.6856 145.506L62.25 153.931V156.742H129.75V153.931L121.309 145.506C123.895 145.508 126.457 145.001 128.846 144.014C131.236 143.026 133.407 141.579 135.236 139.752C137.065 137.926 138.515 135.758 139.504 133.372C140.493 130.985 141.002 128.427 141 125.844V72.472C141 52.8082 120.861 50 95.9974 50ZM70.6856 134.272C69.5773 134.274 68.4796 134.057 67.4554 133.634C66.4312 133.211 65.5006 132.591 64.717 131.808C63.9333 131.025 63.312 130.096 62.8887 129.073C62.4654 128.05 62.2483 126.954 62.25 125.847C62.2483 124.74 62.4653 123.643 62.8886 122.62C63.3119 121.597 63.9332 120.668 64.7168 119.885C65.5005 119.102 66.431 118.481 67.4552 118.058C68.4794 117.635 69.5772 117.418 70.6856 117.419C71.7939 117.418 72.8914 117.635 73.9155 118.059C74.9396 118.482 75.87 119.103 76.6535 119.886C77.4371 120.668 78.0584 121.598 78.4818 122.621C78.9053 123.644 79.1225 124.74 79.1212 125.847C79.1209 126.953 78.9023 128.047 78.4781 129.069C78.0539 130.09 77.4323 131.018 76.6489 131.799C75.8655 132.58 74.9356 133.2 73.9124 133.622C72.8892 134.044 71.7927 134.261 70.6856 134.259V134.272ZM90.3712 100.561H62.2474V72.472H90.361V100.561H90.3712ZM121.309 134.272C120.201 134.273 119.104 134.056 118.08 133.633C117.056 133.211 116.125 132.59 115.341 131.807C114.558 131.025 113.937 130.095 113.513 129.073C113.09 128.05 112.872 126.954 112.874 125.847C112.872 124.74 113.09 123.644 113.513 122.621C113.936 121.598 114.558 120.668 115.341 119.886C116.125 119.103 117.055 118.482 118.079 118.059C119.103 117.635 120.201 117.418 121.309 117.419C122.418 117.417 123.516 117.634 124.541 118.057C125.566 118.48 126.497 119.101 127.281 119.884C128.065 120.667 128.686 121.596 129.11 122.619C129.534 123.643 129.751 124.74 129.75 125.847C129.749 126.953 129.53 128.048 129.106 129.069C128.681 130.091 128.059 131.019 127.275 131.8C126.491 132.581 125.561 133.201 124.537 133.623C123.514 134.045 122.417 134.261 121.309 134.259V134.272ZM129.75 100.561H101.624V72.472H129.75V100.561Z" fill="white"/>
</svg>
